<?xml version="1.0" encoding="UTF-8"?>
<svg xmlns="http://www.w3.org/2000/svg" viewBox="0 0 2400 1350" preserveAspectRatio="xMidYMid slice">
  <defs>
    <linearGradient id="sky" x1="0" y1="0" x2="0" y2="1">
      <stop offset="0%"  stop-color="#1c252e"/>
      <stop offset="35%" stop-color="#2e3a44"/>
      <stop offset="65%" stop-color="#5a6068"/>
      <stop offset="85%" stop-color="#a39c8e"/>
      <stop offset="98%" stop-color="#c9b294"/>
      <stop offset="100%" stop-color="#d4ba9b"/>
    </linearGradient>
    <linearGradient id="mist" x1="0" y1="0" x2="0" y2="1">
      <stop offset="0%"  stop-color="#a39c8e" stop-opacity="0"/>
      <stop offset="60%" stop-color="#bdaf99" stop-opacity=".35"/>
      <stop offset="100%" stop-color="#cfbb9d" stop-opacity=".55"/>
    </linearGradient>
    <linearGradient id="lake" x1="0" y1="0" x2="0" y2="1">
      <stop offset="0%"  stop-color="#998a78"/>
      <stop offset="6%"  stop-color="#6e6657"/>
      <stop offset="20%" stop-color="#3e424a"/>
      <stop offset="55%" stop-color="#1b2128"/>
      <stop offset="100%" stop-color="#0c1218"/>
    </linearGradient>
    <linearGradient id="shore" x1="0" y1="0" x2="0" y2="1">
      <stop offset="0%" stop-color="#0e1318" stop-opacity="0"/>
      <stop offset="100%" stop-color="#080a0d" stop-opacity="1"/>
    </linearGradient>
    <radialGradient id="vignette" cx="50%" cy="55%" r="75%">
      <stop offset="50%" stop-color="#000" stop-opacity="0"/>
      <stop offset="100%" stop-color="#000" stop-opacity=".5"/>
    </radialGradient>
    <filter id="grain">
      <feTurbulence type="fractalNoise" baseFrequency=".9" numOctaves="2" seed="3"/>
      <feColorMatrix values="0 0 0 0 0  0 0 0 0 0  0 0 0 0 0  0 0 0 .05 0"/>
    </filter>
  </defs>

  <!-- 1. Sky -->
  <rect width="2400" height="783" fill="url(#sky)"/>

  <!-- 2. Far fjäll (very subtle, sits deep in mist) -->
  <path d="M 0.0,763.0 L 0.0,749.1 L 120.0,744.5 L 240.0,749.7 L 360.0,746.4 L 480.0,758.7 L 600.0,762.5 L 720.0,759.7 L 840.0,749.9 L 960.0,757.2 L 1080.0,751.2 L 1200.0,744.5 L 1320.0,743.7 L 1440.0,757.3 L 1560.0,748.5 L 1680.0,762.5 L 1800.0,758.4 L 1920.0,760.7 L 2040.0,741.7 L 2160.0,741.4 L 2280.0,744.1 L 2400.0,741.0 L 2400,1350 L 0,1350 Z" fill="#4a525c" opacity=".42"/>

  <!-- 3. Mid hills -->
  <path d="M 0.0,773.0 L 0.0,743.9 L 120.0,752.9 L 240.0,743.9 L 360.0,754.0 L 480.0,770.7 L 600.0,762.6 L 720.0,751.4 L 840.0,749.1 L 960.0,745.3 L 1080.0,756.3 L 1200.0,768.1 L 1320.0,768.7 L 1440.0,769.8 L 1560.0,759.2 L 1680.0,743.1 L 1800.0,754.8 L 1920.0,766.4 L 2040.0,767.4 L 2160.0,772.7 L 2280.0,772.1 L 2400.0,768.5 L 2400,1350 L 0,1350 Z" fill="#3a414b" opacity=".62"/>

  <!-- 4. Far treeline (small jagged pines, fading into mist) -->
  <path d="M 0.0,775.0 L 2.7,747.9 L 5.4,775.0 L 8.5,746.5 L 11.6,775.0 L 15.5,759.4 L 19.4,775.0 L 21.4,740.9 L 23.5,775.0 L 26.3,755.4 L 29.0,775.0 L 34.0,749.7 L 39.0,775.0 L 43.5,749.6 L 48.0,775.0 L 51.9,757.4 L 55.9,775.0 L 59.8,740.2 L 63.7,775.0 L 67.2,743.2 L 70.8,775.0 L 74.8,759.5 L 78.8,775.0 L 83.1,746.8 L 87.4,775.0 L 90.3,760.3 L 93.2,775.0 L 97.8,749.7 L 102.4,775.0 L 106.5,739.9 L 110.7,775.0 L 114.8,738.9 L 119.0,775.0 L 122.2,741.8 L 125.4,775.0 L 128.7,738.5 L 132.0,775.0 L 136.7,758.7 L 141.3,775.0 L 143.7,755.8 L 146.1,775.0 L 151.0,750.5 L 155.9,775.0 L 159.8,753.8 L 163.7,775.0 L 167.2,751.7 L 170.7,775.0 L 173.8,747.0 L 176.8,775.0 L 180.6,739.3 L 184.3,775.0 L 188.4,738.7 L 192.4,775.0 L 197.0,737.2 L 201.6,775.0 L 205.6,757.1 L 209.6,775.0 L 214.2,737.8 L 218.7,775.0 L 223.5,747.3 L 228.2,775.0 L 232.3,755.9 L 236.5,775.0 L 240.9,747.2 L 245.4,775.0 L 248.3,759.5 L 251.2,775.0 L 255.7,737.2 L 260.3,775.0 L 262.5,741.8 L 264.8,775.0 L 268.0,757.4 L 271.3,775.0 L 274.2,742.5 L 277.0,775.0 L 281.7,759.9 L 286.3,775.0 L 290.1,759.9 L 294.0,775.0 L 298.1,753.1 L 302.3,775.0 L 306.9,737.5 L 311.6,775.0 L 315.1,737.0 L 318.6,775.0 L 321.5,759.2 L 324.4,775.0 L 328.2,760.2 L 332.0,775.0 L 334.6,751.2 L 337.2,775.0 L 341.1,757.3 L 344.9,775.0 L 347.0,740.2 L 349.1,775.0 L 352.1,738.0 L 355.0,775.0 L 359.7,751.9 L 364.4,775.0 L 367.8,748.5 L 371.2,775.0 L 375.1,746.7 L 379.0,775.0 L 382.7,746.1 L 386.4,775.0 L 391.2,748.8 L 396.0,775.0 L 399.3,743.7 L 402.6,775.0 L 405.3,753.8 L 408.0,775.0 L 413.0,748.5 L 417.9,775.0 L 421.6,760.7 L 425.2,775.0 L 428.5,747.1 L 431.7,775.0 L 433.8,746.2 L 435.8,775.0 L 439.7,759.6 L 443.6,775.0 L 447.5,749.8 L 451.4,775.0 L 455.4,752.5 L 459.4,775.0 L 463.6,743.3 L 467.7,775.0 L 469.8,759.5 L 471.8,775.0 L 475.9,737.9 L 479.9,775.0 L 482.6,750.0 L 485.4,775.0 L 489.2,753.3 L 492.9,775.0 L 496.0,753.5 L 499.1,775.0 L 502.2,746.7 L 505.3,775.0 L 508.2,751.9 L 511.1,775.0 L 515.5,760.4 L 519.8,775.0 L 523.5,743.4 L 527.2,775.0 L 530.1,755.7 L 533.1,775.0 L 537.5,755.3 L 541.9,775.0 L 544.4,750.6 L 547.0,775.0 L 551.1,758.6 L 555.2,775.0 L 558.2,753.0 L 561.1,775.0 L 565.6,750.5 L 570.1,775.0 L 574.7,756.9 L 579.3,775.0 L 582.3,745.4 L 585.3,775.0 L 589.9,750.2 L 594.6,775.0 L 597.3,758.1 L 599.9,775.0 L 603.5,756.4 L 607.1,775.0 L 611.5,740.9 L 616.0,775.0 L 618.5,754.3 L 621.1,775.0 L 625.5,745.6 L 629.9,775.0 L 634.3,752.7 L 638.7,775.0 L 641.1,754.0 L 643.5,775.0 L 647.9,754.5 L 652.3,775.0 L 655.3,751.0 L 658.4,775.0 L 661.6,751.2 L 664.9,775.0 L 669.6,757.3 L 674.4,775.0 L 676.4,738.4 L 678.4,775.0 L 683.1,737.3 L 687.7,775.0 L 691.0,738.2 L 694.3,775.0 L 699.1,755.7 L 703.9,775.0 L 708.1,740.9 L 712.3,775.0 L 716.3,748.5 L 720.3,775.0 L 723.2,752.8 L 726.1,775.0 L 728.7,759.4 L 731.4,775.0 L 735.2,754.1 L 739.0,775.0 L 743.4,759.9 L 747.8,775.0 L 752.5,744.4 L 757.2,775.0 L 762.0,739.5 L 766.8,775.0 L 771.5,747.2 L 776.2,775.0 L 778.2,743.1 L 780.3,775.0 L 782.8,753.8 L 785.3,775.0 L 789.3,748.4 L 793.3,775.0 L 796.5,738.5 L 799.8,775.0 L 803.6,752.8 L 807.4,775.0 L 810.2,740.3 L 812.9,775.0 L 816.4,742.2 L 819.8,775.0 L 822.9,756.3 L 825.9,775.0 L 829.5,741.4 L 833.1,775.0 L 835.6,742.0 L 838.1,775.0 L 842.9,741.7 L 847.7,775.0 L 852.2,760.8 L 856.6,775.0 L 860.5,740.3 L 864.4,775.0 L 866.5,754.5 L 868.7,775.0 L 871.5,748.3 L 874.3,775.0 L 877.6,749.7 L 880.8,775.0 L 885.2,761.0 L 889.5,775.0 L 891.7,758.0 L 893.8,775.0 L 896.2,759.4 L 898.6,775.0 L 903.5,740.5 L 908.4,775.0 L 910.7,748.9 L 912.9,775.0 L 915.9,753.5 L 918.8,775.0 L 921.9,745.5 L 924.9,775.0 L 928.7,752.3 L 932.5,775.0 L 935.0,753.1 L 937.6,775.0 L 940.0,747.7 L 942.4,775.0 L 946.5,751.9 L 950.6,775.0 L 952.9,756.7 L 955.1,775.0 L 958.2,746.5 L 961.4,775.0 L 965.7,751.9 L 970.1,775.0 L 974.5,746.0 L 978.9,775.0 L 982.2,752.1 L 985.5,775.0 L 988.9,744.1 L 992.4,775.0 L 995.7,744.3 L 999.0,775.0 L 1002.3,755.1 L 1005.7,775.0 L 1009.3,744.3 L 1012.9,775.0 L 1015.2,750.8 L 1017.4,775.0 L 1020.6,739.9 L 1023.9,775.0 L 1028.7,752.0 L 1033.5,775.0 L 1038.2,742.0 L 1042.9,775.0 L 1045.7,749.9 L 1048.5,775.0 L 1050.9,741.5 L 1053.2,775.0 L 1057.2,739.7 L 1061.2,775.0 L 1065.6,745.0 L 1070.0,775.0 L 1074.2,747.5 L 1078.4,775.0 L 1080.7,746.9 L 1083.0,775.0 L 1085.0,757.6 L 1087.0,775.0 L 1091.3,759.9 L 1095.7,775.0 L 1097.9,758.6 L 1100.2,775.0 L 1104.9,756.7 L 1109.5,775.0 L 1111.6,740.8 L 1113.6,775.0 L 1116.0,740.7 L 1118.4,775.0 L 1122.4,740.9 L 1126.4,775.0 L 1131.3,747.1 L 1136.1,775.0 L 1140.5,760.1 L 1144.9,775.0 L 1149.2,748.7 L 1153.5,775.0 L 1157.7,758.4 L 1161.8,775.0 L 1166.1,738.6 L 1170.3,775.0 L 1172.5,753.2 L 1174.7,775.0 L 1178.4,741.1 L 1182.1,775.0 L 1184.8,756.7 L 1187.5,775.0 L 1190.3,746.2 L 1193.0,775.0 L 1197.3,751.6 L 1201.5,775.0 L 1204.6,751.5 L 1207.7,775.0 L 1210.8,751.0 L 1213.8,775.0 L 1216.1,749.0 L 1218.3,775.0 L 1223.3,751.1 L 1228.2,775.0 L 1232.4,757.1 L 1236.7,775.0 L 1240.7,742.9 L 1244.8,775.0 L 1248.8,748.6 L 1252.9,775.0 L 1256.3,745.6 L 1259.8,775.0 L 1264.4,757.4 L 1269.1,775.0 L 1271.4,743.0 L 1273.7,775.0 L 1278.5,748.6 L 1283.2,775.0 L 1286.5,743.7 L 1289.9,775.0 L 1292.4,754.6 L 1295.0,775.0 L 1297.6,746.9 L 1300.2,775.0 L 1303.1,755.4 L 1306.1,775.0 L 1310.1,738.1 L 1314.2,775.0 L 1317.1,744.1 L 1320.0,775.0 L 1323.2,740.5 L 1326.5,775.0 L 1330.2,754.6 L 1334.0,775.0 L 1336.6,760.4 L 1339.3,775.0 L 1342.7,751.8 L 1346.2,775.0 L 1348.7,752.3 L 1351.2,775.0 L 1354.2,742.4 L 1357.1,775.0 L 1359.6,737.2 L 1362.0,775.0 L 1365.4,746.6 L 1368.9,775.0 L 1372.3,741.0 L 1375.7,775.0 L 1380.1,747.6 L 1384.6,775.0 L 1388.0,743.7 L 1391.5,775.0 L 1396.1,751.4 L 1400.6,775.0 L 1404.8,738.0 L 1409.0,775.0 L 1412.4,755.5 L 1415.8,775.0 L 1418.5,743.8 L 1421.2,775.0 L 1425.3,738.0 L 1429.3,775.0 L 1433.9,755.2 L 1438.4,775.0 L 1441.0,754.8 L 1443.6,775.0 L 1446.1,744.1 L 1448.7,775.0 L 1453.3,739.4 L 1457.8,775.0 L 1460.6,740.2 L 1463.4,775.0 L 1466.3,750.8 L 1469.2,775.0 L 1473.4,758.9 L 1477.6,775.0 L 1479.9,741.0 L 1482.2,775.0 L 1485.1,752.4 L 1487.9,775.0 L 1491.7,744.8 L 1495.4,775.0 L 1497.4,753.0 L 1499.4,775.0 L 1502.8,749.3 L 1506.1,775.0 L 1508.7,747.0 L 1511.3,775.0 L 1516.2,751.6 L 1521.1,775.0 L 1524.7,758.1 L 1528.3,775.0 L 1531.1,745.0 L 1534.0,775.0 L 1536.3,739.7 L 1538.6,775.0 L 1543.4,758.7 L 1548.1,775.0 L 1552.9,752.0 L 1557.7,775.0 L 1562.1,742.8 L 1566.4,775.0 L 1569.3,744.8 L 1572.2,775.0 L 1576.1,741.7 L 1580.1,775.0 L 1582.9,742.9 L 1585.7,775.0 L 1590.6,744.9 L 1595.4,775.0 L 1599.1,758.3 L 1602.7,775.0 L 1606.1,752.5 L 1609.6,775.0 L 1613.8,744.7 L 1617.9,775.0 L 1621.6,756.6 L 1625.3,775.0 L 1629.3,745.9 L 1633.2,775.0 L 1635.7,739.6 L 1638.3,775.0 L 1642.2,758.0 L 1646.2,775.0 L 1651.0,757.6 L 1655.8,775.0 L 1658.8,743.7 L 1661.8,775.0 L 1665.6,747.7 L 1669.4,775.0 L 1673.3,750.0 L 1677.3,775.0 L 1680.2,756.8 L 1683.1,775.0 L 1685.3,743.8 L 1687.5,775.0 L 1691.8,748.0 L 1696.1,775.0 L 1700.3,752.4 L 1704.5,775.0 L 1707.3,751.8 L 1710.1,775.0 L 1714.7,760.0 L 1719.3,775.0 L 1722.9,755.1 L 1726.4,775.0 L 1730.7,752.5 L 1735.0,775.0 L 1738.0,751.3 L 1741.0,775.0 L 1744.6,742.5 L 1748.2,775.0 L 1751.3,740.7 L 1754.3,775.0 L 1756.7,754.5 L 1759.0,775.0 L 1761.3,758.3 L 1763.6,775.0 L 1768.0,743.5 L 1772.3,775.0 L 1774.8,756.5 L 1777.4,775.0 L 1780.7,743.2 L 1783.9,775.0 L 1788.3,743.0 L 1792.8,775.0 L 1796.6,757.5 L 1800.3,775.0 L 1803.5,756.4 L 1806.7,775.0 L 1810.3,747.4 L 1813.9,775.0 L 1816.5,755.0 L 1819.1,775.0 L 1823.5,760.3 L 1827.8,775.0 L 1832.2,739.6 L 1836.6,775.0 L 1841.5,751.8 L 1846.3,775.0 L 1850.0,747.0 L 1853.6,775.0 L 1857.5,737.6 L 1861.4,775.0 L 1865.5,753.8 L 1869.6,775.0 L 1874.1,749.4 L 1878.7,775.0 L 1882.5,743.6 L 1886.3,775.0 L 1888.3,742.5 L 1890.3,775.0 L 1894.3,749.2 L 1898.3,775.0 L 1901.9,749.9 L 1905.5,775.0 L 1908.0,748.3 L 1910.6,775.0 L 1912.7,749.0 L 1914.8,775.0 L 1918.8,750.3 L 1922.7,775.0 L 1926.4,738.0 L 1930.1,775.0 L 1934.8,757.7 L 1939.5,775.0 L 1943.8,746.0 L 1948.2,775.0 L 1950.4,752.4 L 1952.5,775.0 L 1955.2,759.1 L 1957.9,775.0 L 1961.5,738.7 L 1965.2,775.0 L 1968.1,740.1 L 1971.1,775.0 L 1975.2,757.8 L 1979.3,775.0 L 1983.8,746.6 L 1988.4,775.0 L 1993.2,743.8 L 1998.0,775.0 L 2002.2,752.8 L 2006.4,775.0 L 2010.8,738.6 L 2015.2,775.0 L 2019.8,750.5 L 2024.4,775.0 L 2028.7,749.4 L 2033.0,775.0 L 2035.3,760.0 L 2037.6,775.0 L 2039.8,756.2 L 2042.1,775.0 L 2044.6,749.1 L 2047.0,775.0 L 2051.1,748.1 L 2055.2,775.0 L 2058.5,745.4 L 2061.8,775.0 L 2064.7,749.9 L 2067.6,775.0 L 2071.9,751.4 L 2076.1,775.0 L 2078.7,739.4 L 2081.2,775.0 L 2085.4,752.2 L 2089.5,775.0 L 2092.7,748.3 L 2095.8,775.0 L 2099.6,755.6 L 2103.4,775.0 L 2105.4,756.0 L 2107.4,775.0 L 2111.7,757.6 L 2116.1,775.0 L 2119.4,756.3 L 2122.8,775.0 L 2125.5,756.9 L 2128.1,775.0 L 2131.3,757.0 L 2134.5,775.0 L 2136.6,758.4 L 2138.7,775.0 L 2141.2,749.2 L 2143.7,775.0 L 2145.9,760.5 L 2148.0,775.0 L 2151.4,751.2 L 2154.7,775.0 L 2158.8,759.8 L 2162.9,775.0 L 2166.2,751.5 L 2169.4,775.0 L 2171.4,737.8 L 2173.5,775.0 L 2176.2,758.7 L 2178.8,775.0 L 2182.3,757.0 L 2185.7,775.0 L 2189.6,752.7 L 2193.4,775.0 L 2195.8,759.8 L 2198.2,775.0 L 2202.3,754.4 L 2206.5,775.0 L 2210.9,749.8 L 2215.3,775.0 L 2220.1,753.8 L 2224.9,775.0 L 2227.6,754.6 L 2230.4,775.0 L 2234.8,745.9 L 2239.2,775.0 L 2242.3,758.8 L 2245.3,775.0 L 2249.4,737.7 L 2253.4,775.0 L 2257.2,760.9 L 2261.0,775.0 L 2263.1,758.8 L 2265.1,775.0 L 2267.7,760.1 L 2270.2,775.0 L 2272.3,745.3 L 2274.5,775.0 L 2279.2,756.2 L 2283.9,775.0 L 2288.8,749.6 L 2293.7,775.0 L 2298.1,739.0 L 2302.6,775.0 L 2307.4,760.2 L 2312.2,775.0 L 2315.1,746.4 L 2318.0,775.0 L 2322.9,758.9 L 2327.7,775.0 L 2330.6,740.6 L 2333.5,775.0 L 2335.8,751.6 L 2338.2,775.0 L 2341.2,744.7 L 2344.2,775.0 L 2348.9,756.8 L 2353.7,775.0 L 2357.9,743.4 L 2362.2,775.0 L 2366.7,747.7 L 2371.2,775.0 L 2376.0,752.3 L 2380.7,775.0 L 2384.0,755.5 L 2387.2,775.0 L 2391.5,749.5 L 2395.9,775.0 L 2397.2,756.9 L 2400.0,775.0 L 2400,1350 L 0,1350 Z" fill="#2a2f37" opacity=".82"/>

  <!-- 5. Mist haze across horizon -->
  <rect y="603" width="2400" height="190" fill="url(#mist)"/>

  <!-- 6. Near treeline (darker, more defined silhouettes) -->
  <path d="M 0.0,783.0 L 4.2,756.9 L 8.4,783.0 L 13.3,754.8 L 18.3,783.0 L 21.7,744.9 L 25.0,783.0 L 32.6,729.0 L 40.2,783.0 L 47.0,752.1 L 53.8,783.0 L 59.5,749.9 L 65.2,783.0 L 69.0,756.8 L 72.9,783.0 L 77.0,723.9 L 81.1,783.0 L 88.2,728.7 L 95.3,783.0 L 102.3,753.3 L 109.3,783.0 L 113.9,735.9 L 118.4,783.0 L 125.1,726.8 L 131.8,783.0 L 139.2,757.5 L 146.6,783.0 L 152.6,734.1 L 158.6,783.0 L 164.2,753.9 L 169.7,783.0 L 175.1,757.4 L 180.4,783.0 L 188.1,726.4 L 195.8,783.0 L 201.5,749.0 L 207.2,783.0 L 214.8,738.1 L 222.3,783.0 L 229.7,727.1 L 237.2,783.0 L 242.7,744.4 L 248.2,783.0 L 254.2,743.8 L 260.2,783.0 L 264.0,748.8 L 267.8,783.0 L 274.9,759.3 L 282.0,783.0 L 285.2,735.9 L 288.4,783.0 L 292.8,739.6 L 297.2,783.0 L 302.6,747.3 L 307.9,783.0 L 315.9,753.2 L 323.9,783.0 L 329.0,752.9 L 334.0,783.0 L 340.2,749.9 L 346.4,783.0 L 351.2,731.1 L 355.9,783.0 L 360.5,738.7 L 365.1,783.0 L 372.7,757.0 L 380.2,783.0 L 383.5,751.8 L 386.8,783.0 L 393.6,736.4 L 400.4,783.0 L 404.6,747.8 L 408.8,783.0 L 412.7,742.6 L 416.6,783.0 L 419.8,733.1 L 423.0,783.0 L 430.5,722.8 L 438.0,783.0 L 444.7,722.6 L 451.3,783.0 L 454.4,749.4 L 457.5,783.0 L 465.3,730.0 L 473.2,783.0 L 478.2,723.3 L 483.3,783.0 L 489.4,728.3 L 495.5,783.0 L 500.0,753.3 L 504.4,783.0 L 509.6,755.5 L 514.9,783.0 L 519.8,722.5 L 524.7,783.0 L 529.3,760.6 L 534.0,783.0 L 537.2,754.2 L 540.4,783.0 L 547.4,746.5 L 554.3,783.0 L 558.7,757.1 L 563.2,783.0 L 571.1,744.0 L 579.0,783.0 L 583.0,758.6 L 587.1,783.0 L 590.4,754.3 L 593.6,783.0 L 600.0,755.0 L 606.4,783.0 L 609.6,741.4 L 612.8,783.0 L 617.1,721.1 L 621.3,783.0 L 624.9,739.8 L 628.5,783.0 L 635.4,744.6 L 642.3,783.0 L 650.2,741.9 L 658.1,783.0 L 662.3,744.6 L 666.6,783.0 L 669.7,744.2 L 672.9,783.0 L 677.2,725.4 L 681.4,783.0 L 688.6,741.1 L 695.7,783.0 L 698.9,750.8 L 702.0,783.0 L 706.2,752.7 L 710.5,783.0 L 714.6,726.2 L 718.8,783.0 L 722.5,758.9 L 726.2,783.0 L 733.8,738.4 L 741.5,783.0 L 749.4,744.9 L 757.4,783.0 L 764.9,734.8 L 772.4,783.0 L 779.3,731.2 L 786.3,783.0 L 791.8,757.3 L 797.2,783.0 L 801.3,726.0 L 805.3,783.0 L 812.8,724.0 L 820.3,783.0 L 825.0,734.7 L 829.7,783.0 L 836.7,735.3 L 843.7,783.0 L 850.8,739.9 L 857.9,783.0 L 864.1,733.6 L 870.4,783.0 L 874.7,724.1 L 879.1,783.0 L 886.9,758.0 L 894.6,783.0 L 902.5,722.5 L 910.4,783.0 L 916.7,759.2 L 923.0,783.0 L 930.5,755.9 L 938.0,783.0 L 945.9,734.3 L 953.7,783.0 L 957.0,754.3 L 960.3,783.0 L 966.5,738.2 L 972.7,783.0 L 979.4,723.9 L 986.1,783.0 L 990.2,760.9 L 994.3,783.0 L 1001.9,760.5 L 1009.5,783.0 L 1016.9,756.4 L 1024.3,783.0 L 1031.4,729.7 L 1038.4,783.0 L 1045.8,739.0 L 1053.2,783.0 L 1060.6,752.9 L 1068.0,783.0 L 1074.3,747.8 L 1080.7,783.0 L 1088.1,730.1 L 1095.6,783.0 L 1101.0,739.9 L 1106.3,783.0 L 1109.5,759.6 L 1112.6,783.0 L 1118.6,741.4 L 1124.5,783.0 L 1131.9,736.7 L 1139.2,783.0 L 1142.9,746.5 L 1146.6,783.0 L 1153.4,740.1 L 1160.2,783.0 L 1163.3,727.5 L 1166.3,783.0 L 1173.5,757.6 L 1180.6,783.0 L 1186.3,745.8 L 1192.1,783.0 L 1199.0,748.6 L 1205.9,783.0 L 1210.1,741.5 L 1214.3,783.0 L 1222.1,757.2 L 1229.9,783.0 L 1233.5,736.2 L 1237.1,783.0 L 1244.5,740.5 L 1251.9,783.0 L 1257.1,726.7 L 1262.3,783.0 L 1269.2,758.3 L 1276.0,783.0 L 1283.4,753.2 L 1290.8,783.0 L 1295.4,727.5 L 1299.9,783.0 L 1305.0,729.1 L 1310.1,783.0 L 1313.9,726.0 L 1317.8,783.0 L 1321.7,755.0 L 1325.5,783.0 L 1331.0,747.5 L 1336.5,783.0 L 1342.2,724.8 L 1347.9,783.0 L 1354.4,760.8 L 1361.0,783.0 L 1365.6,739.2 L 1370.1,783.0 L 1375.5,732.4 L 1381.0,783.0 L 1386.4,758.0 L 1391.8,783.0 L 1396.1,727.1 L 1400.3,783.0 L 1405.1,730.3 L 1409.8,783.0 L 1417.8,735.9 L 1425.7,783.0 L 1432.1,736.6 L 1438.5,783.0 L 1443.0,724.5 L 1447.6,783.0 L 1452.9,724.5 L 1458.3,783.0 L 1462.8,726.3 L 1467.3,783.0 L 1474.3,736.5 L 1481.2,783.0 L 1486.4,755.4 L 1491.6,783.0 L 1498.5,746.5 L 1505.3,783.0 L 1511.6,755.7 L 1518.0,783.0 L 1521.4,755.2 L 1524.8,783.0 L 1531.8,753.9 L 1538.9,783.0 L 1546.4,746.1 L 1553.9,783.0 L 1559.8,747.0 L 1565.6,783.0 L 1571.8,757.3 L 1577.9,783.0 L 1582.9,723.6 L 1587.9,783.0 L 1591.8,734.8 L 1595.7,783.0 L 1600.3,749.0 L 1604.9,783.0 L 1608.1,760.2 L 1611.2,783.0 L 1618.9,727.8 L 1626.7,783.0 L 1633.7,728.7 L 1640.7,783.0 L 1648.4,754.7 L 1656.2,783.0 L 1662.1,741.2 L 1668.1,783.0 L 1673.9,723.5 L 1679.8,783.0 L 1686.6,722.3 L 1693.4,783.0 L 1697.0,734.9 L 1700.6,783.0 L 1706.9,731.2 L 1713.3,783.0 L 1719.4,727.7 L 1725.5,783.0 L 1730.0,723.9 L 1734.5,783.0 L 1739.6,737.0 L 1744.6,783.0 L 1752.1,732.9 L 1759.6,783.0 L 1764.1,751.8 L 1768.7,783.0 L 1773.3,735.9 L 1777.9,783.0 L 1785.9,725.0 L 1793.9,783.0 L 1798.9,745.0 L 1803.9,783.0 L 1811.0,749.6 L 1818.1,783.0 L 1823.1,760.5 L 1828.2,783.0 L 1832.1,739.4 L 1836.0,783.0 L 1842.5,736.4 L 1848.9,783.0 L 1853.8,723.0 L 1858.6,783.0 L 1864.7,754.8 L 1870.8,783.0 L 1874.2,722.0 L 1877.5,783.0 L 1885.4,724.2 L 1893.4,783.0 L 1899.4,748.5 L 1905.4,783.0 L 1908.9,750.7 L 1912.3,783.0 L 1916.4,723.9 L 1920.6,783.0 L 1928.0,729.9 L 1935.5,783.0 L 1939.2,751.5 L 1943.0,783.0 L 1947.5,723.1 L 1952.0,783.0 L 1955.8,729.4 L 1959.6,783.0 L 1966.0,739.1 L 1972.4,783.0 L 1980.2,750.5 L 1988.0,783.0 L 1993.6,754.7 L 1999.2,783.0 L 2002.7,759.7 L 2006.2,783.0 L 2010.8,756.1 L 2015.4,783.0 L 2018.7,721.3 L 2022.0,783.0 L 2026.4,725.4 L 2030.9,783.0 L 2037.4,731.7 L 2043.9,783.0 L 2050.2,722.9 L 2056.4,783.0 L 2063.8,732.2 L 2071.2,783.0 L 2077.0,733.2 L 2082.8,783.0 L 2089.4,738.9 L 2096.1,783.0 L 2101.6,754.8 L 2107.1,783.0 L 2114.3,741.6 L 2121.5,783.0 L 2124.9,754.3 L 2128.2,783.0 L 2135.6,750.8 L 2143.0,783.0 L 2147.9,733.7 L 2152.9,783.0 L 2160.2,747.9 L 2167.5,783.0 L 2172.4,744.1 L 2177.4,783.0 L 2180.5,725.9 L 2183.6,783.0 L 2186.7,722.6 L 2189.8,783.0 L 2193.6,754.7 L 2197.4,783.0 L 2204.6,728.1 L 2211.8,783.0 L 2216.0,738.9 L 2220.2,783.0 L 2225.5,732.3 L 2230.9,783.0 L 2234.8,728.0 L 2238.8,783.0 L 2246.8,732.7 L 2254.7,783.0 L 2262.3,723.5 L 2270.0,783.0 L 2274.8,727.1 L 2279.7,783.0 L 2286.9,737.5 L 2294.1,783.0 L 2297.6,736.2 L 2301.2,783.0 L 2308.7,748.8 L 2316.3,783.0 L 2322.5,725.1 L 2328.7,783.0 L 2334.7,759.5 L 2340.7,783.0 L 2346.9,750.8 L 2353.1,783.0 L 2360.4,734.5 L 2367.6,783.0 L 2372.2,725.2 L 2376.7,783.0 L 2382.8,747.4 L 2389.0,783.0 L 2392.8,725.3 L 2400.0,783.0 L 2400,1350 L 0,1350 Z" fill="#1b1f25"/>

  <!-- 7. Lake -->
  <rect y="783" width="2400" height="567" fill="url(#lake)"/>

  <!-- 8. Reflection of treeline (flipped, faded) -->
  <g transform="matrix(1 0 0 -1 0 1566)" opacity=".22">
    <path d="M 0.0,783.0 L 4.2,756.9 L 8.4,783.0 L 13.3,754.8 L 18.3,783.0 L 21.7,744.9 L 25.0,783.0 L 32.6,729.0 L 40.2,783.0 L 47.0,752.1 L 53.8,783.0 L 59.5,749.9 L 65.2,783.0 L 69.0,756.8 L 72.9,783.0 L 77.0,723.9 L 81.1,783.0 L 88.2,728.7 L 95.3,783.0 L 102.3,753.3 L 109.3,783.0 L 113.9,735.9 L 118.4,783.0 L 125.1,726.8 L 131.8,783.0 L 139.2,757.5 L 146.6,783.0 L 152.6,734.1 L 158.6,783.0 L 164.2,753.9 L 169.7,783.0 L 175.1,757.4 L 180.4,783.0 L 188.1,726.4 L 195.8,783.0 L 201.5,749.0 L 207.2,783.0 L 214.8,738.1 L 222.3,783.0 L 229.7,727.1 L 237.2,783.0 L 242.7,744.4 L 248.2,783.0 L 254.2,743.8 L 260.2,783.0 L 264.0,748.8 L 267.8,783.0 L 274.9,759.3 L 282.0,783.0 L 285.2,735.9 L 288.4,783.0 L 292.8,739.6 L 297.2,783.0 L 302.6,747.3 L 307.9,783.0 L 315.9,753.2 L 323.9,783.0 L 329.0,752.9 L 334.0,783.0 L 340.2,749.9 L 346.4,783.0 L 351.2,731.1 L 355.9,783.0 L 360.5,738.7 L 365.1,783.0 L 372.7,757.0 L 380.2,783.0 L 383.5,751.8 L 386.8,783.0 L 393.6,736.4 L 400.4,783.0 L 404.6,747.8 L 408.8,783.0 L 412.7,742.6 L 416.6,783.0 L 419.8,733.1 L 423.0,783.0 L 430.5,722.8 L 438.0,783.0 L 444.7,722.6 L 451.3,783.0 L 454.4,749.4 L 457.5,783.0 L 465.3,730.0 L 473.2,783.0 L 478.2,723.3 L 483.3,783.0 L 489.4,728.3 L 495.5,783.0 L 500.0,753.3 L 504.4,783.0 L 509.6,755.5 L 514.9,783.0 L 519.8,722.5 L 524.7,783.0 L 529.3,760.6 L 534.0,783.0 L 537.2,754.2 L 540.4,783.0 L 547.4,746.5 L 554.3,783.0 L 558.7,757.1 L 563.2,783.0 L 571.1,744.0 L 579.0,783.0 L 583.0,758.6 L 587.1,783.0 L 590.4,754.3 L 593.6,783.0 L 600.0,755.0 L 606.4,783.0 L 609.6,741.4 L 612.8,783.0 L 617.1,721.1 L 621.3,783.0 L 624.9,739.8 L 628.5,783.0 L 635.4,744.6 L 642.3,783.0 L 650.2,741.9 L 658.1,783.0 L 662.3,744.6 L 666.6,783.0 L 669.7,744.2 L 672.9,783.0 L 677.2,725.4 L 681.4,783.0 L 688.6,741.1 L 695.7,783.0 L 698.9,750.8 L 702.0,783.0 L 706.2,752.7 L 710.5,783.0 L 714.6,726.2 L 718.8,783.0 L 722.5,758.9 L 726.2,783.0 L 733.8,738.4 L 741.5,783.0 L 749.4,744.9 L 757.4,783.0 L 764.9,734.8 L 772.4,783.0 L 779.3,731.2 L 786.3,783.0 L 791.8,757.3 L 797.2,783.0 L 801.3,726.0 L 805.3,783.0 L 812.8,724.0 L 820.3,783.0 L 825.0,734.7 L 829.7,783.0 L 836.7,735.3 L 843.7,783.0 L 850.8,739.9 L 857.9,783.0 L 864.1,733.6 L 870.4,783.0 L 874.7,724.1 L 879.1,783.0 L 886.9,758.0 L 894.6,783.0 L 902.5,722.5 L 910.4,783.0 L 916.7,759.2 L 923.0,783.0 L 930.5,755.9 L 938.0,783.0 L 945.9,734.3 L 953.7,783.0 L 957.0,754.3 L 960.3,783.0 L 966.5,738.2 L 972.7,783.0 L 979.4,723.9 L 986.1,783.0 L 990.2,760.9 L 994.3,783.0 L 1001.9,760.5 L 1009.5,783.0 L 1016.9,756.4 L 1024.3,783.0 L 1031.4,729.7 L 1038.4,783.0 L 1045.8,739.0 L 1053.2,783.0 L 1060.6,752.9 L 1068.0,783.0 L 1074.3,747.8 L 1080.7,783.0 L 1088.1,730.1 L 1095.6,783.0 L 1101.0,739.9 L 1106.3,783.0 L 1109.5,759.6 L 1112.6,783.0 L 1118.6,741.4 L 1124.5,783.0 L 1131.9,736.7 L 1139.2,783.0 L 1142.9,746.5 L 1146.6,783.0 L 1153.4,740.1 L 1160.2,783.0 L 1163.3,727.5 L 1166.3,783.0 L 1173.5,757.6 L 1180.6,783.0 L 1186.3,745.8 L 1192.1,783.0 L 1199.0,748.6 L 1205.9,783.0 L 1210.1,741.5 L 1214.3,783.0 L 1222.1,757.2 L 1229.9,783.0 L 1233.5,736.2 L 1237.1,783.0 L 1244.5,740.5 L 1251.9,783.0 L 1257.1,726.7 L 1262.3,783.0 L 1269.2,758.3 L 1276.0,783.0 L 1283.4,753.2 L 1290.8,783.0 L 1295.4,727.5 L 1299.9,783.0 L 1305.0,729.1 L 1310.1,783.0 L 1313.9,726.0 L 1317.8,783.0 L 1321.7,755.0 L 1325.5,783.0 L 1331.0,747.5 L 1336.5,783.0 L 1342.2,724.8 L 1347.9,783.0 L 1354.4,760.8 L 1361.0,783.0 L 1365.6,739.2 L 1370.1,783.0 L 1375.5,732.4 L 1381.0,783.0 L 1386.4,758.0 L 1391.8,783.0 L 1396.1,727.1 L 1400.3,783.0 L 1405.1,730.3 L 1409.8,783.0 L 1417.8,735.9 L 1425.7,783.0 L 1432.1,736.6 L 1438.5,783.0 L 1443.0,724.5 L 1447.6,783.0 L 1452.9,724.5 L 1458.3,783.0 L 1462.8,726.3 L 1467.3,783.0 L 1474.3,736.5 L 1481.2,783.0 L 1486.4,755.4 L 1491.6,783.0 L 1498.5,746.5 L 1505.3,783.0 L 1511.6,755.7 L 1518.0,783.0 L 1521.4,755.2 L 1524.8,783.0 L 1531.8,753.9 L 1538.9,783.0 L 1546.4,746.1 L 1553.9,783.0 L 1559.8,747.0 L 1565.6,783.0 L 1571.8,757.3 L 1577.9,783.0 L 1582.9,723.6 L 1587.9,783.0 L 1591.8,734.8 L 1595.7,783.0 L 1600.3,749.0 L 1604.9,783.0 L 1608.1,760.2 L 1611.2,783.0 L 1618.9,727.8 L 1626.7,783.0 L 1633.7,728.7 L 1640.7,783.0 L 1648.4,754.7 L 1656.2,783.0 L 1662.1,741.2 L 1668.1,783.0 L 1673.9,723.5 L 1679.8,783.0 L 1686.6,722.3 L 1693.4,783.0 L 1697.0,734.9 L 1700.6,783.0 L 1706.9,731.2 L 1713.3,783.0 L 1719.4,727.7 L 1725.5,783.0 L 1730.0,723.9 L 1734.5,783.0 L 1739.6,737.0 L 1744.6,783.0 L 1752.1,732.9 L 1759.6,783.0 L 1764.1,751.8 L 1768.7,783.0 L 1773.3,735.9 L 1777.9,783.0 L 1785.9,725.0 L 1793.9,783.0 L 1798.9,745.0 L 1803.9,783.0 L 1811.0,749.6 L 1818.1,783.0 L 1823.1,760.5 L 1828.2,783.0 L 1832.1,739.4 L 1836.0,783.0 L 1842.5,736.4 L 1848.9,783.0 L 1853.8,723.0 L 1858.6,783.0 L 1864.7,754.8 L 1870.8,783.0 L 1874.2,722.0 L 1877.5,783.0 L 1885.4,724.2 L 1893.4,783.0 L 1899.4,748.5 L 1905.4,783.0 L 1908.9,750.7 L 1912.3,783.0 L 1916.4,723.9 L 1920.6,783.0 L 1928.0,729.9 L 1935.5,783.0 L 1939.2,751.5 L 1943.0,783.0 L 1947.5,723.1 L 1952.0,783.0 L 1955.8,729.4 L 1959.6,783.0 L 1966.0,739.1 L 1972.4,783.0 L 1980.2,750.5 L 1988.0,783.0 L 1993.6,754.7 L 1999.2,783.0 L 2002.7,759.7 L 2006.2,783.0 L 2010.8,756.1 L 2015.4,783.0 L 2018.7,721.3 L 2022.0,783.0 L 2026.4,725.4 L 2030.9,783.0 L 2037.4,731.7 L 2043.9,783.0 L 2050.2,722.9 L 2056.4,783.0 L 2063.8,732.2 L 2071.2,783.0 L 2077.0,733.2 L 2082.8,783.0 L 2089.4,738.9 L 2096.1,783.0 L 2101.6,754.8 L 2107.1,783.0 L 2114.3,741.6 L 2121.5,783.0 L 2124.9,754.3 L 2128.2,783.0 L 2135.6,750.8 L 2143.0,783.0 L 2147.9,733.7 L 2152.9,783.0 L 2160.2,747.9 L 2167.5,783.0 L 2172.4,744.1 L 2177.4,783.0 L 2180.5,725.9 L 2183.6,783.0 L 2186.7,722.6 L 2189.8,783.0 L 2193.6,754.7 L 2197.4,783.0 L 2204.6,728.1 L 2211.8,783.0 L 2216.0,738.9 L 2220.2,783.0 L 2225.5,732.3 L 2230.9,783.0 L 2234.8,728.0 L 2238.8,783.0 L 2246.8,732.7 L 2254.7,783.0 L 2262.3,723.5 L 2270.0,783.0 L 2274.8,727.1 L 2279.7,783.0 L 2286.9,737.5 L 2294.1,783.0 L 2297.6,736.2 L 2301.2,783.0 L 2308.7,748.8 L 2316.3,783.0 L 2322.5,725.1 L 2328.7,783.0 L 2334.7,759.5 L 2340.7,783.0 L 2346.9,750.8 L 2353.1,783.0 L 2360.4,734.5 L 2367.6,783.0 L 2372.2,725.2 L 2376.7,783.0 L 2382.8,747.4 L 2389.0,783.0 L 2392.8,725.3 L 2400.0,783.0 L 2400,1350 L 0,1350 Z" fill="#1b1f25"/>
    <path d="M 0.0,775.0 L 2.7,747.9 L 5.4,775.0 L 8.5,746.5 L 11.6,775.0 L 15.5,759.4 L 19.4,775.0 L 21.4,740.9 L 23.5,775.0 L 26.3,755.4 L 29.0,775.0 L 34.0,749.7 L 39.0,775.0 L 43.5,749.6 L 48.0,775.0 L 51.9,757.4 L 55.9,775.0 L 59.8,740.2 L 63.7,775.0 L 67.2,743.2 L 70.8,775.0 L 74.8,759.5 L 78.8,775.0 L 83.1,746.8 L 87.4,775.0 L 90.3,760.3 L 93.2,775.0 L 97.8,749.7 L 102.4,775.0 L 106.5,739.9 L 110.7,775.0 L 114.8,738.9 L 119.0,775.0 L 122.2,741.8 L 125.4,775.0 L 128.7,738.5 L 132.0,775.0 L 136.7,758.7 L 141.3,775.0 L 143.7,755.8 L 146.1,775.0 L 151.0,750.5 L 155.9,775.0 L 159.8,753.8 L 163.7,775.0 L 167.2,751.7 L 170.7,775.0 L 173.8,747.0 L 176.8,775.0 L 180.6,739.3 L 184.3,775.0 L 188.4,738.7 L 192.4,775.0 L 197.0,737.2 L 201.6,775.0 L 205.6,757.1 L 209.6,775.0 L 214.2,737.8 L 218.7,775.0 L 223.5,747.3 L 228.2,775.0 L 232.3,755.9 L 236.5,775.0 L 240.9,747.2 L 245.4,775.0 L 248.3,759.5 L 251.2,775.0 L 255.7,737.2 L 260.3,775.0 L 262.5,741.8 L 264.8,775.0 L 268.0,757.4 L 271.3,775.0 L 274.2,742.5 L 277.0,775.0 L 281.7,759.9 L 286.3,775.0 L 290.1,759.9 L 294.0,775.0 L 298.1,753.1 L 302.3,775.0 L 306.9,737.5 L 311.6,775.0 L 315.1,737.0 L 318.6,775.0 L 321.5,759.2 L 324.4,775.0 L 328.2,760.2 L 332.0,775.0 L 334.6,751.2 L 337.2,775.0 L 341.1,757.3 L 344.9,775.0 L 347.0,740.2 L 349.1,775.0 L 352.1,738.0 L 355.0,775.0 L 359.7,751.9 L 364.4,775.0 L 367.8,748.5 L 371.2,775.0 L 375.1,746.7 L 379.0,775.0 L 382.7,746.1 L 386.4,775.0 L 391.2,748.8 L 396.0,775.0 L 399.3,743.7 L 402.6,775.0 L 405.3,753.8 L 408.0,775.0 L 413.0,748.5 L 417.9,775.0 L 421.6,760.7 L 425.2,775.0 L 428.5,747.1 L 431.7,775.0 L 433.8,746.2 L 435.8,775.0 L 439.7,759.6 L 443.6,775.0 L 447.5,749.8 L 451.4,775.0 L 455.4,752.5 L 459.4,775.0 L 463.6,743.3 L 467.7,775.0 L 469.8,759.5 L 471.8,775.0 L 475.9,737.9 L 479.9,775.0 L 482.6,750.0 L 485.4,775.0 L 489.2,753.3 L 492.9,775.0 L 496.0,753.5 L 499.1,775.0 L 502.2,746.7 L 505.3,775.0 L 508.2,751.9 L 511.1,775.0 L 515.5,760.4 L 519.8,775.0 L 523.5,743.4 L 527.2,775.0 L 530.1,755.7 L 533.1,775.0 L 537.5,755.3 L 541.9,775.0 L 544.4,750.6 L 547.0,775.0 L 551.1,758.6 L 555.2,775.0 L 558.2,753.0 L 561.1,775.0 L 565.6,750.5 L 570.1,775.0 L 574.7,756.9 L 579.3,775.0 L 582.3,745.4 L 585.3,775.0 L 589.9,750.2 L 594.6,775.0 L 597.3,758.1 L 599.9,775.0 L 603.5,756.4 L 607.1,775.0 L 611.5,740.9 L 616.0,775.0 L 618.5,754.3 L 621.1,775.0 L 625.5,745.6 L 629.9,775.0 L 634.3,752.7 L 638.7,775.0 L 641.1,754.0 L 643.5,775.0 L 647.9,754.5 L 652.3,775.0 L 655.3,751.0 L 658.4,775.0 L 661.6,751.2 L 664.9,775.0 L 669.6,757.3 L 674.4,775.0 L 676.4,738.4 L 678.4,775.0 L 683.1,737.3 L 687.7,775.0 L 691.0,738.2 L 694.3,775.0 L 699.1,755.7 L 703.9,775.0 L 708.1,740.9 L 712.3,775.0 L 716.3,748.5 L 720.3,775.0 L 723.2,752.8 L 726.1,775.0 L 728.7,759.4 L 731.4,775.0 L 735.2,754.1 L 739.0,775.0 L 743.4,759.9 L 747.8,775.0 L 752.5,744.4 L 757.2,775.0 L 762.0,739.5 L 766.8,775.0 L 771.5,747.2 L 776.2,775.0 L 778.2,743.1 L 780.3,775.0 L 782.8,753.8 L 785.3,775.0 L 789.3,748.4 L 793.3,775.0 L 796.5,738.5 L 799.8,775.0 L 803.6,752.8 L 807.4,775.0 L 810.2,740.3 L 812.9,775.0 L 816.4,742.2 L 819.8,775.0 L 822.9,756.3 L 825.9,775.0 L 829.5,741.4 L 833.1,775.0 L 835.6,742.0 L 838.1,775.0 L 842.9,741.7 L 847.7,775.0 L 852.2,760.8 L 856.6,775.0 L 860.5,740.3 L 864.4,775.0 L 866.5,754.5 L 868.7,775.0 L 871.5,748.3 L 874.3,775.0 L 877.6,749.7 L 880.8,775.0 L 885.2,761.0 L 889.5,775.0 L 891.7,758.0 L 893.8,775.0 L 896.2,759.4 L 898.6,775.0 L 903.5,740.5 L 908.4,775.0 L 910.7,748.9 L 912.9,775.0 L 915.9,753.5 L 918.8,775.0 L 921.9,745.5 L 924.9,775.0 L 928.7,752.3 L 932.5,775.0 L 935.0,753.1 L 937.6,775.0 L 940.0,747.7 L 942.4,775.0 L 946.5,751.9 L 950.6,775.0 L 952.9,756.7 L 955.1,775.0 L 958.2,746.5 L 961.4,775.0 L 965.7,751.9 L 970.1,775.0 L 974.5,746.0 L 978.9,775.0 L 982.2,752.1 L 985.5,775.0 L 988.9,744.1 L 992.4,775.0 L 995.7,744.3 L 999.0,775.0 L 1002.3,755.1 L 1005.7,775.0 L 1009.3,744.3 L 1012.9,775.0 L 1015.2,750.8 L 1017.4,775.0 L 1020.6,739.9 L 1023.9,775.0 L 1028.7,752.0 L 1033.5,775.0 L 1038.2,742.0 L 1042.9,775.0 L 1045.7,749.9 L 1048.5,775.0 L 1050.9,741.5 L 1053.2,775.0 L 1057.2,739.7 L 1061.2,775.0 L 1065.6,745.0 L 1070.0,775.0 L 1074.2,747.5 L 1078.4,775.0 L 1080.7,746.9 L 1083.0,775.0 L 1085.0,757.6 L 1087.0,775.0 L 1091.3,759.9 L 1095.7,775.0 L 1097.9,758.6 L 1100.2,775.0 L 1104.9,756.7 L 1109.5,775.0 L 1111.6,740.8 L 1113.6,775.0 L 1116.0,740.7 L 1118.4,775.0 L 1122.4,740.9 L 1126.4,775.0 L 1131.3,747.1 L 1136.1,775.0 L 1140.5,760.1 L 1144.9,775.0 L 1149.2,748.7 L 1153.5,775.0 L 1157.7,758.4 L 1161.8,775.0 L 1166.1,738.6 L 1170.3,775.0 L 1172.5,753.2 L 1174.7,775.0 L 1178.4,741.1 L 1182.1,775.0 L 1184.8,756.7 L 1187.5,775.0 L 1190.3,746.2 L 1193.0,775.0 L 1197.3,751.6 L 1201.5,775.0 L 1204.6,751.5 L 1207.7,775.0 L 1210.8,751.0 L 1213.8,775.0 L 1216.1,749.0 L 1218.3,775.0 L 1223.3,751.1 L 1228.2,775.0 L 1232.4,757.1 L 1236.7,775.0 L 1240.7,742.9 L 1244.8,775.0 L 1248.8,748.6 L 1252.9,775.0 L 1256.3,745.6 L 1259.8,775.0 L 1264.4,757.4 L 1269.1,775.0 L 1271.4,743.0 L 1273.7,775.0 L 1278.5,748.6 L 1283.2,775.0 L 1286.5,743.7 L 1289.9,775.0 L 1292.4,754.6 L 1295.0,775.0 L 1297.6,746.9 L 1300.2,775.0 L 1303.1,755.4 L 1306.1,775.0 L 1310.1,738.1 L 1314.2,775.0 L 1317.1,744.1 L 1320.0,775.0 L 1323.2,740.5 L 1326.5,775.0 L 1330.2,754.6 L 1334.0,775.0 L 1336.6,760.4 L 1339.3,775.0 L 1342.7,751.8 L 1346.2,775.0 L 1348.7,752.3 L 1351.2,775.0 L 1354.2,742.4 L 1357.1,775.0 L 1359.6,737.2 L 1362.0,775.0 L 1365.4,746.6 L 1368.9,775.0 L 1372.3,741.0 L 1375.7,775.0 L 1380.1,747.6 L 1384.6,775.0 L 1388.0,743.7 L 1391.5,775.0 L 1396.1,751.4 L 1400.6,775.0 L 1404.8,738.0 L 1409.0,775.0 L 1412.4,755.5 L 1415.8,775.0 L 1418.5,743.8 L 1421.2,775.0 L 1425.3,738.0 L 1429.3,775.0 L 1433.9,755.2 L 1438.4,775.0 L 1441.0,754.8 L 1443.6,775.0 L 1446.1,744.1 L 1448.7,775.0 L 1453.3,739.4 L 1457.8,775.0 L 1460.6,740.2 L 1463.4,775.0 L 1466.3,750.8 L 1469.2,775.0 L 1473.4,758.9 L 1477.6,775.0 L 1479.9,741.0 L 1482.2,775.0 L 1485.1,752.4 L 1487.9,775.0 L 1491.7,744.8 L 1495.4,775.0 L 1497.4,753.0 L 1499.4,775.0 L 1502.8,749.3 L 1506.1,775.0 L 1508.7,747.0 L 1511.3,775.0 L 1516.2,751.6 L 1521.1,775.0 L 1524.7,758.1 L 1528.3,775.0 L 1531.1,745.0 L 1534.0,775.0 L 1536.3,739.7 L 1538.6,775.0 L 1543.4,758.7 L 1548.1,775.0 L 1552.9,752.0 L 1557.7,775.0 L 1562.1,742.8 L 1566.4,775.0 L 1569.3,744.8 L 1572.2,775.0 L 1576.1,741.7 L 1580.1,775.0 L 1582.9,742.9 L 1585.7,775.0 L 1590.6,744.9 L 1595.4,775.0 L 1599.1,758.3 L 1602.7,775.0 L 1606.1,752.5 L 1609.6,775.0 L 1613.8,744.7 L 1617.9,775.0 L 1621.6,756.6 L 1625.3,775.0 L 1629.3,745.9 L 1633.2,775.0 L 1635.7,739.6 L 1638.3,775.0 L 1642.2,758.0 L 1646.2,775.0 L 1651.0,757.6 L 1655.8,775.0 L 1658.8,743.7 L 1661.8,775.0 L 1665.6,747.7 L 1669.4,775.0 L 1673.3,750.0 L 1677.3,775.0 L 1680.2,756.8 L 1683.1,775.0 L 1685.3,743.8 L 1687.5,775.0 L 1691.8,748.0 L 1696.1,775.0 L 1700.3,752.4 L 1704.5,775.0 L 1707.3,751.8 L 1710.1,775.0 L 1714.7,760.0 L 1719.3,775.0 L 1722.9,755.1 L 1726.4,775.0 L 1730.7,752.5 L 1735.0,775.0 L 1738.0,751.3 L 1741.0,775.0 L 1744.6,742.5 L 1748.2,775.0 L 1751.3,740.7 L 1754.3,775.0 L 1756.7,754.5 L 1759.0,775.0 L 1761.3,758.3 L 1763.6,775.0 L 1768.0,743.5 L 1772.3,775.0 L 1774.8,756.5 L 1777.4,775.0 L 1780.7,743.2 L 1783.9,775.0 L 1788.3,743.0 L 1792.8,775.0 L 1796.6,757.5 L 1800.3,775.0 L 1803.5,756.4 L 1806.7,775.0 L 1810.3,747.4 L 1813.9,775.0 L 1816.5,755.0 L 1819.1,775.0 L 1823.5,760.3 L 1827.8,775.0 L 1832.2,739.6 L 1836.6,775.0 L 1841.5,751.8 L 1846.3,775.0 L 1850.0,747.0 L 1853.6,775.0 L 1857.5,737.6 L 1861.4,775.0 L 1865.5,753.8 L 1869.6,775.0 L 1874.1,749.4 L 1878.7,775.0 L 1882.5,743.6 L 1886.3,775.0 L 1888.3,742.5 L 1890.3,775.0 L 1894.3,749.2 L 1898.3,775.0 L 1901.9,749.9 L 1905.5,775.0 L 1908.0,748.3 L 1910.6,775.0 L 1912.7,749.0 L 1914.8,775.0 L 1918.8,750.3 L 1922.7,775.0 L 1926.4,738.0 L 1930.1,775.0 L 1934.8,757.7 L 1939.5,775.0 L 1943.8,746.0 L 1948.2,775.0 L 1950.4,752.4 L 1952.5,775.0 L 1955.2,759.1 L 1957.9,775.0 L 1961.5,738.7 L 1965.2,775.0 L 1968.1,740.1 L 1971.1,775.0 L 1975.2,757.8 L 1979.3,775.0 L 1983.8,746.6 L 1988.4,775.0 L 1993.2,743.8 L 1998.0,775.0 L 2002.2,752.8 L 2006.4,775.0 L 2010.8,738.6 L 2015.2,775.0 L 2019.8,750.5 L 2024.4,775.0 L 2028.7,749.4 L 2033.0,775.0 L 2035.3,760.0 L 2037.6,775.0 L 2039.8,756.2 L 2042.1,775.0 L 2044.6,749.1 L 2047.0,775.0 L 2051.1,748.1 L 2055.2,775.0 L 2058.5,745.4 L 2061.8,775.0 L 2064.7,749.9 L 2067.6,775.0 L 2071.9,751.4 L 2076.1,775.0 L 2078.7,739.4 L 2081.2,775.0 L 2085.4,752.2 L 2089.5,775.0 L 2092.7,748.3 L 2095.8,775.0 L 2099.6,755.6 L 2103.4,775.0 L 2105.4,756.0 L 2107.4,775.0 L 2111.7,757.6 L 2116.1,775.0 L 2119.4,756.3 L 2122.8,775.0 L 2125.5,756.9 L 2128.1,775.0 L 2131.3,757.0 L 2134.5,775.0 L 2136.6,758.4 L 2138.7,775.0 L 2141.2,749.2 L 2143.7,775.0 L 2145.9,760.5 L 2148.0,775.0 L 2151.4,751.2 L 2154.7,775.0 L 2158.8,759.8 L 2162.9,775.0 L 2166.2,751.5 L 2169.4,775.0 L 2171.4,737.8 L 2173.5,775.0 L 2176.2,758.7 L 2178.8,775.0 L 2182.3,757.0 L 2185.7,775.0 L 2189.6,752.7 L 2193.4,775.0 L 2195.8,759.8 L 2198.2,775.0 L 2202.3,754.4 L 2206.5,775.0 L 2210.9,749.8 L 2215.3,775.0 L 2220.1,753.8 L 2224.9,775.0 L 2227.6,754.6 L 2230.4,775.0 L 2234.8,745.9 L 2239.2,775.0 L 2242.3,758.8 L 2245.3,775.0 L 2249.4,737.7 L 2253.4,775.0 L 2257.2,760.9 L 2261.0,775.0 L 2263.1,758.8 L 2265.1,775.0 L 2267.7,760.1 L 2270.2,775.0 L 2272.3,745.3 L 2274.5,775.0 L 2279.2,756.2 L 2283.9,775.0 L 2288.8,749.6 L 2293.7,775.0 L 2298.1,739.0 L 2302.6,775.0 L 2307.4,760.2 L 2312.2,775.0 L 2315.1,746.4 L 2318.0,775.0 L 2322.9,758.9 L 2327.7,775.0 L 2330.6,740.6 L 2333.5,775.0 L 2335.8,751.6 L 2338.2,775.0 L 2341.2,744.7 L 2344.2,775.0 L 2348.9,756.8 L 2353.7,775.0 L 2357.9,743.4 L 2362.2,775.0 L 2366.7,747.7 L 2371.2,775.0 L 2376.0,752.3 L 2380.7,775.0 L 2384.0,755.5 L 2387.2,775.0 L 2391.5,749.5 L 2395.9,775.0 L 2397.2,756.9 L 2400.0,775.0 L 2400,1350 L 0,1350 Z" fill="#2a2f37" opacity=".5"/>
  </g>

  <!-- 9. Water ripples -->
  <line x1="642" y1="792" x2="1304" y2="792" stroke="#a7a59c" stroke-opacity="0.140" stroke-width="1"/>
  <line x1="21" y1="798" x2="1462" y2="798" stroke="#a7a59c" stroke-opacity="0.135" stroke-width="1"/>
  <line x1="19" y1="805" x2="1439" y2="805" stroke="#a7a59c" stroke-opacity="0.130" stroke-width="1"/>
  <line x1="392" y1="813" x2="1465" y2="813" stroke="#a7a59c" stroke-opacity="0.125" stroke-width="1"/>
  <line x1="583" y1="819" x2="1208" y2="819" stroke="#a7a59c" stroke-opacity="0.120" stroke-width="1"/>
  <line x1="503" y1="827" x2="1608" y2="827" stroke="#a7a59c" stroke-opacity="0.115" stroke-width="1"/>
  <line x1="689" y1="832" x2="1604" y2="832" stroke="#a7a59c" stroke-opacity="0.110" stroke-width="1"/>
  <line x1="70" y1="838" x2="2217" y2="838" stroke="#a7a59c" stroke-opacity="0.105" stroke-width="1"/>
  <line x1="581" y1="847" x2="2076" y2="847" stroke="#a7a59c" stroke-opacity="0.100" stroke-width="1"/>
  <line x1="701" y1="854" x2="1654" y2="854" stroke="#a7a59c" stroke-opacity="0.095" stroke-width="1"/>
  <line x1="597" y1="861" x2="1942" y2="861" stroke="#a7a59c" stroke-opacity="0.090" stroke-width="1"/>
  <line x1="416" y1="869" x2="2045" y2="869" stroke="#a7a59c" stroke-opacity="0.085" stroke-width="1"/>
  <line x1="164" y1="873" x2="1547" y2="873" stroke="#a7a59c" stroke-opacity="0.080" stroke-width="1"/>
  <line x1="168" y1="880" x2="1321" y2="880" stroke="#a7a59c" stroke-opacity="0.075" stroke-width="1"/>
  <line x1="458" y1="888" x2="1638" y2="888" stroke="#a7a59c" stroke-opacity="0.070" stroke-width="1"/>
  <line x1="151" y1="895" x2="1520" y2="895" stroke="#a7a59c" stroke-opacity="0.065" stroke-width="1"/>
  <line x1="467" y1="905" x2="1931" y2="905" stroke="#a7a59c" stroke-opacity="0.060" stroke-width="1"/>
  <line x1="525" y1="909" x2="1396" y2="909" stroke="#a7a59c" stroke-opacity="0.055" stroke-width="1"/>
  <line x1="712" y1="917" x2="1968" y2="917" stroke="#a7a59c" stroke-opacity="0.050" stroke-width="1"/>
  <line x1="493" y1="924" x2="2211" y2="924" stroke="#a7a59c" stroke-opacity="0.045" stroke-width="1"/>
  <line x1="165" y1="932" x2="1239" y2="932" stroke="#a7a59c" stroke-opacity="0.040" stroke-width="1"/>
  <line x1="193" y1="937" x2="1453" y2="937" stroke="#a7a59c" stroke-opacity="0.040" stroke-width="1"/>
  <line x1="631" y1="947" x2="1578" y2="947" stroke="#a7a59c" stroke-opacity="0.040" stroke-width="1"/>
  <line x1="285" y1="953" x2="2297" y2="953" stroke="#a7a59c" stroke-opacity="0.040" stroke-width="1"/>
  <line x1="191" y1="959" x2="1496" y2="959" stroke="#a7a59c" stroke-opacity="0.040" stroke-width="1"/>
  <line x1="189" y1="966" x2="1902" y2="966" stroke="#a7a59c" stroke-opacity="0.040" stroke-width="1"/>
  <line x1="288" y1="975" x2="1463" y2="975" stroke="#a7a59c" stroke-opacity="0.040" stroke-width="1"/>
  <line x1="367" y1="982" x2="1309" y2="982" stroke="#a7a59c" stroke-opacity="0.040" stroke-width="1"/>

  <!-- 10. Foreground mound shore -->
  <path d="M 0,1350 L 0,1023 C 200,1013 380,1018 560,1043 C 740,1068 900,1063 2400,1078 L 2400,1350 Z" fill="#0a0e12"/>

  <!-- 11. Foreground pine cluster (right side, dark) -->
  <g fill="#0a0d10">
    <path d="M 1839.2,1310 L 1872.0,1105.2 L 1904.8,1310 Z M 1966.1,1310 L 1992.0,1148.2 L 2017.9,1310 Z M 2059.3,1310 L 2088.0,1130.7 L 2116.7,1310 Z M 2155.9,1310 L 2184.0,1134.4 L 2212.1,1310 Z M 2270.2,1310 L 2304.0,1098.4 L 2337.8,1310 Z"/>
  </g>

  <!-- 12. Bottom shore-shade gradient -->
  <rect y="1190" width="2400" height="160" fill="url(#shore)"/>

  <!-- 13. Vignette -->
  <rect width="2400" height="1350" fill="url(#vignette)"/>

  <!-- 14. Faint grain texture -->
  <rect width="2400" height="1350" filter="url(#grain)" opacity=".7"/>
</svg>
